# xmcd CD database file
#
# Track frame offsets:
#	150
#	23792
#	84019
#	98696
#	143292
#	155489
#
# Disc length: 2538 seconds
#
# Revision: 0
# Processed by: cddbd v1.5.2PL0 Copyright (c) Steve Scherf et al.
# Submitted via: CDex 1.51
#
DISCID=3209e806
DTITLE=Hobo Blues Band - Tiltott gyümölcs cd2
DYEAR=1988
DGENRE=Blues
TTITLE0=Ballada a senki fiáról
TTITLE1=Ki vagyok én
TTITLE2=Közlegény béues
TTITLE3=Vörös a ház
TTITLE4=Bye bye Johnny
TTITLE5=Get Up, Stand Up
EXTD=YEAR: 1988
EXTT0=
EXTT1=
EXTT2=
EXTT3=
EXTT4=
EXTT5=
PLAYORDER=
